<?xml version="1.0" standalone="no"?>
<!DOCTYPE svg PUBLIC "-//W3C//DTD SVG 20010904//EN"
 "http://www.w3.org/TR/2001/REC-SVG-20010904/DTD/svg10.dtd">
<svg version="1.0" xmlns="http://www.w3.org/2000/svg"
 width="1400.000000pt" height="1400.000000pt" viewBox="0 0 1400.000000 1400.000000"
 preserveAspectRatio="xMidYMid meet">
<metadata>
Created by potrace 1.11, written by Peter Selinger 2001-2013
</metadata>
<g transform="translate(0.000000,1400.000000) scale(0.100000,-0.100000)"
fill="#000000" stroke="none">
<path d="M6648 13825 c-3 -3 -150 -14 -253 -19 -17 -1 -36 -6 -44 -10 -10 -7
-12 -5 -6 4 6 9 4 11 -4 5 -7 -4 -29 -9 -49 -11 -21 -2 -59 -6 -87 -10 -52 -6
-85 -10 -145 -18 -67 -7 -135 -17 -150 -21 -8 -2 -37 -7 -65 -11 -27 -3 -52
-8 -55 -9 -3 -2 -24 -6 -46 -9 -22 -4 -51 -9 -64 -12 -14 -3 -38 -8 -55 -11
-47 -8 -60 -11 -60 -13 0 -1 -11 -4 -25 -6 -46 -7 -75 -12 -80 -14 -3 -1 -8
-2 -12 -1 -5 0 -8 -3 -8 -7 0 -5 -10 -8 -22 -7 -13 1 -50 -6 -83 -16 -33 -10
-71 -20 -85 -23 -14 -2 -25 -5 -25 -6 0 -1 -17 -6 -47 -13 -7 -1 -19 -6 -26
-11 -7 -4 -16 -5 -19 -2 -3 3 -20 -1 -38 -9 -19 -7 -36 -11 -39 -7 -3 3 -6 1
-6 -4 0 -5 -12 -11 -27 -12 -15 -1 -30 -8 -35 -15 -4 -6 -8 -8 -8 -3 0 5 -8 2
-17 -5 -15 -12 -16 -12 -8 1 8 13 5 12 -15 -1 -14 -9 -33 -15 -42 -13 -10 1
-18 -1 -18 -6 0 -4 -15 -10 -32 -14 -39 -8 -231 -77 -238 -86 -3 -3 -14 -6
-25 -5 -11 0 -23 -4 -26 -8 -3 -5 -15 -10 -25 -12 -10 -2 -20 -4 -21 -5 -2 -2
-6 -3 -10 -5 -10 -2 -45 -17 -115 -48 -32 -14 -58 -24 -58 -22 0 2 -22 -7 -49
-20 -27 -14 -54 -25 -60 -25 -6 0 -11 -5 -11 -11 0 -5 -4 -8 -9 -4 -5 3 -12 1
-16 -5 -4 -6 -11 -8 -16 -5 -5 4 -9 1 -9 -6 0 -7 -3 -10 -6 -6 -3 3 -24 -5
-46 -19 -22 -14 -37 -20 -32 -12 6 9 3 9 -10 -2 -10 -8 -25 -15 -34 -17 -9 -1
-18 -7 -20 -13 -2 -5 -8 -8 -13 -4 -5 3 -9 1 -9 -3 0 -5 -17 -15 -37 -22 -21
-8 -50 -22 -65 -32 -14 -11 -33 -19 -41 -19 -9 0 -17 -3 -19 -7 -1 -5 -21 -17
-43 -28 -22 -11 -82 -43 -134 -72 -51 -29 -97 -53 -102 -53 -5 0 -9 -3 -9 -7
0 -5 -23 -19 -51 -33 -28 -14 -54 -31 -56 -37 -3 -7 -9 -10 -14 -8 -4 3 -17
-3 -28 -14 -11 -11 -22 -17 -25 -14 -3 4 -6 1 -6 -6 0 -7 -4 -9 -10 -6 -5 3
-10 1 -10 -5 0 -6 -4 -9 -8 -6 -5 3 -14 -4 -22 -14 -8 -10 -17 -17 -22 -14 -4
3 -8 0 -8 -6 0 -6 -4 -8 -10 -5 -5 3 -10 1 -10 -5 0 -6 -4 -8 -10 -5 -5 3 -10
-1 -10 -10 0 -9 -4 -14 -9 -10 -5 3 -16 -2 -24 -10 -9 -8 -18 -15 -22 -15 -4
0 -13 -6 -20 -12 -35 -31 -45 -38 -45 -31 0 4 -5 0 -11 -10 -6 -9 -14 -15 -20
-12 -5 4 -9 3 -9 -2 0 -4 -20 -21 -45 -36 -25 -16 -45 -33 -45 -39 0 -5 -4 -7
-9 -4 -5 3 -12 -1 -15 -9 -3 -8 -9 -14 -13 -13 -5 2 -19 -7 -32 -19 -13 -12
-28 -20 -33 -17 -4 3 -8 -2 -8 -11 0 -9 -4 -14 -8 -11 -5 3 -16 -3 -25 -12
-22 -23 -37 -35 -74 -57 -18 -10 -30 -22 -27 -27 3 -4 -2 -8 -10 -8 -9 0 -16
-4 -16 -10 0 -5 -6 -10 -13 -10 -7 0 -18 -9 -25 -21 -7 -12 -16 -18 -19 -15
-3 3 -21 -11 -39 -31 -19 -20 -34 -33 -34 -29 0 4 -20 -14 -45 -39 -25 -25
-50 -43 -55 -40 -6 3 -10 -1 -10 -9 0 -9 -7 -16 -16 -16 -8 0 -12 -4 -9 -10 3
-5 2 -10 -4 -10 -5 0 -31 -20 -57 -45 -25 -25 -51 -45 -56 -45 -5 0 -7 -4 -3
-9 3 -5 -3 -12 -13 -15 -10 -4 -25 -17 -32 -31 -7 -13 -17 -22 -21 -19 -4 2
-18 -9 -30 -25 -12 -17 -26 -28 -31 -25 -4 3 -8 -2 -8 -11 0 -10 -5 -13 -12
-9 -8 5 -9 2 -5 -9 4 -11 1 -17 -8 -17 -7 0 -22 -11 -33 -25 -11 -13 -22 -21
-26 -18 -3 3 -6 0 -6 -8 0 -8 -9 -20 -20 -27 -12 -7 -18 -17 -15 -22 3 -6 -4
-10 -16 -10 -12 0 -20 -3 -16 -6 3 -3 -14 -26 -39 -51 -24 -25 -44 -50 -44
-55 0 -5 -4 -6 -10 -3 -5 3 -10 2 -10 -2 0 -5 -15 -25 -34 -45 -19 -20 -42
-48 -51 -62 -10 -14 -21 -23 -26 -20 -5 3 -9 -1 -9 -9 0 -8 -7 -18 -16 -21 -9
-4 -14 -9 -11 -12 3 -4 -7 -18 -23 -32 -17 -15 -30 -30 -30 -35 0 -4 -18 -26
-40 -47 -23 -22 -37 -40 -33 -40 4 0 -8 -16 -27 -35 -19 -19 -31 -35 -26 -35
4 0 -6 -12 -21 -26 -15 -15 -27 -30 -26 -35 2 -5 -6 -13 -17 -19 -11 -6 -20
-15 -20 -20 0 -6 -9 -21 -21 -34 -12 -13 -21 -27 -20 -30 2 -11 -34 -43 -43
-38 -5 3 -6 0 -2 -6 4 -6 -2 -19 -13 -29 -11 -9 -18 -20 -15 -25 3 -4 -2 -11
-10 -14 -9 -3 -16 -15 -16 -26 0 -10 -4 -17 -9 -14 -5 4 -15 -7 -22 -23 -7
-16 -16 -28 -20 -25 -7 4 -22 -34 -20 -48 1 -5 -4 -8 -9 -8 -6 0 -10 -8 -10
-17 0 -9 -3 -13 -7 -10 -9 9 -32 -24 -33 -46 0 -10 -4 -16 -8 -13 -5 3 -16 -8
-26 -25 -9 -16 -14 -29 -10 -29 4 0 -3 -8 -14 -19 -12 -10 -19 -21 -15 -25 3
-3 1 -6 -6 -6 -7 0 -9 -4 -6 -10 3 -5 1 -10 -5 -10 -6 0 -9 -4 -6 -9 3 -5 -1
-11 -9 -15 -8 -3 -15 -12 -15 -21 0 -8 -4 -15 -10 -15 -5 0 -9 -3 -8 -7 3 -15
-14 -43 -23 -37 -5 3 -9 2 -8 -3 4 -21 -2 -34 -13 -27 -7 4 -8 3 -4 -5 4 -6
-2 -23 -13 -37 -12 -15 -21 -33 -21 -40 0 -8 -5 -14 -11 -14 -5 0 -7 -4 -4
-10 3 -5 2 -10 -3 -10 -5 0 -15 -15 -23 -32 -7 -18 -19 -37 -26 -41 -7 -4 -13
-13 -13 -20 0 -7 4 -6 10 3 5 8 10 10 10 5 0 -6 -11 -22 -25 -37 -14 -15 -25
-34 -25 -42 0 -8 -7 -22 -16 -30 -8 -9 -12 -21 -8 -27 4 -8 3 -9 -4 -5 -8 5
-12 0 -12 -12 0 -11 -7 -22 -15 -26 -8 -3 -12 -11 -10 -18 3 -8 -2 -23 -12
-33 -10 -11 -20 -29 -21 -40 -2 -11 -8 -22 -13 -23 -5 -2 -7 -8 -3 -13 3 -5 0
-9 -6 -9 -6 0 -8 -4 -5 -10 3 -5 1 -10 -6 -10 -7 0 -9 -3 -6 -7 4 -3 0 -14 -8
-23 -8 -9 -16 -28 -17 -43 -1 -14 -6 -23 -10 -21 -4 3 -8 1 -8 -4 0 -5 -9 -30
-20 -56 -12 -25 -21 -49 -21 -53 -1 -5 -11 -21 -22 -37 -12 -16 -16 -26 -9
-22 8 5 10 2 6 -8 -3 -9 -10 -16 -15 -16 -5 0 -9 -8 -9 -18 0 -9 -9 -34 -20
-55 -11 -20 -17 -37 -14 -37 4 0 1 -6 -5 -13 -6 -8 -8 -17 -4 -20 3 -4 1 -7
-6 -7 -7 0 -9 -4 -6 -10 3 -5 1 -10 -5 -10 -6 0 -9 -4 -5 -9 3 -5 1 -12 -5
-16 -6 -4 -8 -10 -5 -15 3 -5 -1 -15 -9 -23 -8 -8 -13 -17 -10 -19 2 -3 -4
-26 -15 -51 -11 -25 -17 -48 -14 -51 4 -3 1 -6 -6 -6 -7 0 -10 -4 -6 -9 3 -5
1 -12 -4 -15 -5 -4 -8 -17 -7 -31 2 -13 0 -22 -5 -20 -4 3 -11 -9 -14 -27 -4
-18 -11 -39 -16 -48 -15 -29 -22 -55 -20 -74 2 -11 -2 -16 -9 -11 -7 4 -10 1
-9 -6 3 -25 -13 -79 -25 -79 -6 0 -4 -5 4 -10 8 -5 10 -10 4 -10 -6 0 -11 -6
-12 -12 -1 -23 -10 -56 -21 -76 -6 -11 -8 -22 -4 -25 3 -4 0 -13 -7 -22 -7 -8
-10 -22 -6 -30 3 -8 1 -15 -5 -15 -5 0 -9 -6 -8 -12 1 -7 0 -20 -4 -28 -8 -22
-20 -72 -22 -92 -1 -10 -8 -24 -15 -33 -9 -11 -9 -15 -1 -15 7 0 9 -5 4 -12
-7 -13 -9 -20 -18 -63 -3 -11 -6 -27 -7 -35 -2 -8 -6 -19 -10 -25 -3 -5 -9
-35 -13 -65 -4 -30 -11 -60 -16 -66 -4 -5 -6 -20 -2 -32 3 -12 1 -22 -5 -22
-5 0 -8 -14 -7 -30 1 -17 -1 -33 -5 -35 -5 -3 -7 -16 -5 -30 1 -14 -1 -28 -5
-30 -5 -3 -7 -16 -5 -30 1 -14 -2 -25 -8 -25 -5 0 -4 -7 3 -15 10 -12 10 -15
0 -15 -7 0 -10 -8 -7 -20 3 -11 1 -20 -5 -20 -6 0 -7 -7 -4 -16 4 -9 1 -23 -5
-30 -9 -11 -8 -14 1 -14 9 0 9 -4 3 -12 -6 -7 -9 -23 -8 -35 1 -13 -1 -23 -4
-23 -3 0 -6 -18 -5 -40 0 -21 -3 -37 -8 -34 -4 3 -8 0 -8 -5 0 -6 5 -11 11
-11 8 0 8 -4 2 -12 -9 -11 -14 -55 -16 -135 -1 -13 -4 -23 -8 -23 -9 0 -6 -20
4 -37 5 -7 4 -13 -1 -13 -8 0 -11 -33 -16 -170 -1 -31 -6 -62 -10 -69 -5 -8
-4 -16 4 -21 7 -5 8 -10 2 -14 -11 -6 -8 -614 3 -781 4 -55 8 -110 8 -122 1
-13 5 -23 10 -23 5 0 4 -6 -2 -13 -6 -8 -8 -17 -4 -21 4 -4 8 -21 9 -39 1 -18
5 -63 9 -102 4 -38 8 -78 9 -87 0 -10 5 -18 11 -18 5 0 3 -5 -5 -10 -9 -6 -11
-10 -3 -10 7 0 10 -7 7 -15 -4 -8 -3 -23 1 -33 4 -9 9 -32 11 -51 2 -19 5 -48
7 -65 2 -18 6 -36 8 -41 3 -6 6 -25 8 -44 1 -19 7 -41 14 -50 10 -12 9 -13 -2
-6 -10 6 -12 4 -6 -5 4 -7 9 -23 11 -34 2 -12 5 -28 7 -36 2 -8 8 -37 12 -65
11 -59 12 -64 15 -67 1 -2 4 -16 5 -33 2 -16 4 -31 5 -32 1 -2 4 -7 5 -13 1
-5 4 -12 5 -15 4 -7 5 -15 14 -67 4 -26 11 -50 15 -53 5 -2 7 -16 6 -30 -2
-14 1 -25 6 -25 5 0 9 -13 9 -29 0 -17 5 -33 10 -36 6 -4 8 -11 5 -16 -4 -5
-3 -15 2 -21 4 -7 8 -17 8 -23 1 -13 15 -66 22 -85 3 -8 7 -19 9 -25 1 -5 7
-24 12 -42 6 -17 8 -34 4 -37 -3 -3 0 -6 7 -6 6 0 11 -6 9 -13 -1 -6 3 -22 10
-34 7 -13 10 -23 8 -23 -7 0 91 -288 110 -322 8 -14 14 -35 14 -45 0 -10 6
-25 13 -31 6 -7 12 -16 12 -20 0 -20 29 -92 37 -92 5 0 7 -4 4 -8 -3 -5 2 -21
10 -36 7 -16 14 -34 14 -40 0 -7 6 -18 13 -24 6 -7 12 -16 13 -20 3 -26 21
-71 45 -115 16 -29 29 -60 29 -69 0 -10 5 -18 10 -18 6 0 10 -7 10 -15 0 -8 5
-15 12 -15 6 0 9 -3 5 -6 -3 -4 12 -42 34 -85 21 -43 40 -82 41 -86 0 -5 10
-24 22 -43 12 -19 28 -48 36 -65 8 -16 17 -32 20 -35 5 -5 45 -80 93 -172 10
-21 23 -38 27 -38 5 0 14 -16 20 -35 6 -19 16 -35 21 -35 5 0 9 -5 9 -11 0 -6
14 -30 30 -54 17 -24 30 -48 30 -54 0 -6 5 -11 10 -11 6 0 10 -6 10 -12 0 -7
11 -26 25 -42 14 -16 25 -35 25 -42 0 -7 3 -14 8 -16 6 -2 57 -74 97 -136 13
-20 14 -21 142 -191 59 -79 113 -150 118 -158 6 -9 19 -25 30 -37 11 -12 36
-41 55 -65 128 -157 236 -276 438 -478 95 -95 174 -173 176 -173 2 0 24 -19
48 -42 58 -55 194 -173 302 -260 11 -10 26 -22 31 -26 17 -14 173 -134 213
-164 21 -15 43 -31 51 -34 7 -4 24 -17 38 -30 14 -13 38 -29 53 -36 16 -7 26
-16 24 -20 -3 -4 0 -8 6 -8 13 0 103 -60 108 -72 2 -4 8 -8 13 -8 6 0 36 -17
67 -38 31 -21 91 -58 132 -83 41 -24 77 -46 80 -50 3 -3 25 -17 50 -29 25 -12
47 -25 50 -29 3 -3 28 -17 55 -31 28 -13 52 -27 55 -31 5 -6 423 -213 500
-247 25 -11 70 -30 100 -42 30 -12 69 -28 85 -35 71 -30 211 -84 225 -87 8 -2
17 -5 20 -8 5 -5 247 -89 271 -94 8 -2 21 -6 29 -9 16 -6 105 -33 155 -47 78
-21 232 -62 248 -66 9 -2 25 -6 35 -8 55 -14 282 -65 312 -70 19 -3 46 -8 60
-11 14 -3 39 -7 55 -9 17 -2 41 -7 55 -10 14 -3 41 -8 60 -11 19 -2 51 -7 70
-10 93 -14 132 -19 235 -30 226 -25 412 -38 582 -39 73 -1 133 -5 133 -9 0 -5
5 -5 10 -2 10 6 142 10 165 5 6 -1 15 -1 20 0 6 1 55 4 110 6 131 4 241 11
340 20 44 4 90 7 103 7 12 1 22 5 22 10 0 5 6 4 13 -2 8 -6 16 -9 19 -6 5 5
26 8 123 19 22 3 51 7 65 10 14 3 46 7 72 10 26 3 58 8 70 10 13 3 39 8 58 11
19 2 44 6 55 8 11 3 36 7 55 11 19 3 44 8 55 10 11 2 38 7 60 11 22 5 43 8 48
7 4 -1 7 1 7 6 0 4 15 8 33 9 17 0 59 8 93 17 34 8 74 18 90 21 39 8 59 13 59
15 0 1 9 3 19 5 11 2 31 7 45 11 14 4 29 8 34 9 4 2 8 3 10 5 1 1 11 3 22 5
11 2 45 12 75 22 30 9 59 16 63 15 4 -1 21 5 37 13 17 9 30 13 30 10 0 -2 23
4 50 15 28 11 50 17 50 15 0 -3 14 1 30 10 17 9 30 13 30 10 0 -3 14 2 32 11
17 9 42 17 56 19 13 1 27 6 31 11 3 5 15 11 26 12 11 2 47 15 79 28 33 13 65
24 73 24 7 0 13 4 13 8 0 5 6 9 14 9 7 0 60 19 117 44 57 24 107 43 112 41 4
-1 7 2 7 7 0 5 14 12 30 16 17 4 30 10 30 14 0 4 10 7 22 8 11 1 25 8 29 15 5
7 9 10 9 6 0 -3 67 27 149 68 82 41 154 74 160 74 6 0 11 4 11 8 0 5 26 21 58
36 73 35 147 77 170 97 10 8 23 14 28 12 6 -2 17 3 24 12 7 8 18 15 25 15 7 0
24 11 39 25 14 13 26 21 26 18 0 -3 7 0 15 7 8 7 15 9 15 4 0 -5 5 -1 11 8 5
10 15 18 20 18 6 0 37 18 69 40 32 22 62 40 65 40 3 0 15 9 27 20 12 11 34 26
50 32 15 7 28 16 28 20 0 5 6 8 13 8 7 0 19 9 27 19 7 11 17 18 22 15 4 -3 8
-1 8 3 0 5 16 17 35 27 19 11 35 23 35 28 0 4 5 8 11 8 6 0 16 6 23 13 8 6 24
19 36 27 12 8 28 20 34 25 6 6 27 22 46 35 19 13 40 29 46 35 7 5 25 19 40 30
16 11 43 33 60 50 33 32 38 35 55 35 5 0 7 5 4 10 -3 6 -1 10 6 10 6 0 22 11
35 26 13 14 24 23 24 20 0 -3 12 6 26 19 15 14 31 25 36 25 5 0 7 4 4 8 -3 5
8 16 25 26 16 9 29 21 29 27 0 5 7 9 16 9 8 0 12 5 9 10 -3 6 -2 10 4 10 24 0
485 456 475 471 -3 5 -2 9 3 8 18 -3 36 1 30 8 -4 3 2 13 13 20 11 8 18 19 15
24 -4 5 1 9 9 9 9 0 16 3 16 8 0 4 14 21 30 39 17 18 30 37 30 42 0 6 5 11 11
11 13 0 40 26 33 33 -3 2 7 14 22 26 15 11 23 21 19 21 -4 0 6 13 21 29 48 50
63 69 56 75 -3 3 -1 6 5 6 6 0 32 29 58 65 27 36 53 65 58 65 6 0 8 3 4 6 -3
3 1 13 8 22 27 33 71 91 110 148 22 31 48 65 57 75 9 9 14 20 10 23 -3 3 0 6
7 6 7 0 10 4 6 9 -3 5 4 16 15 24 11 7 17 17 13 20 -3 4 -1 7 6 7 7 0 10 4 6
9 -3 6 1 13 8 18 7 4 22 24 33 43 10 19 21 37 24 40 11 11 46 66 60 95 8 17
23 39 32 49 10 11 21 29 24 40 4 12 10 23 15 26 4 3 9 12 11 20 2 8 11 21 21
29 10 7 16 19 13 26 -3 8 -1 15 3 17 5 2 22 28 39 58 78 145 96 175 104 178 4
2 5 8 2 13 -3 6 2 19 12 30 9 10 13 19 9 19 -4 0 0 9 9 19 10 11 18 25 20 33
1 7 6 20 11 28 5 8 10 17 11 20 4 23 26 60 34 60 6 0 9 3 6 8 -2 4 3 23 11 42
9 19 15 38 15 43 -1 4 3 7 10 7 6 0 8 3 5 7 -4 3 0 15 10 25 9 10 13 21 10 24
-4 4 2 19 12 33 10 14 19 29 20 33 3 14 14 43 37 95 13 29 26 64 30 78 3 14
10 25 16 25 5 0 7 4 4 9 -3 5 1 23 10 40 9 18 17 37 18 44 2 7 6 19 9 27 9 20
68 182 71 195 2 6 6 17 9 25 3 8 11 35 17 60 7 25 17 51 22 58 6 6 8 12 5 12
-3 0 1 16 9 35 8 19 11 35 8 35 -4 0 -1 7 6 15 6 8 9 19 5 25 -3 5 -2 10 3 10
5 0 9 6 10 13 1 14 10 52 12 52 1 0 3 7 5 15 2 8 7 26 10 40 3 14 7 30 8 35 2
6 6 16 10 23 5 6 6 12 3 12 -3 0 2 23 10 50 8 28 12 54 9 59 -3 5 -1 11 5 13
6 2 11 22 13 44 1 23 5 40 10 37 4 -2 8 3 8 11 3 29 6 56 9 61 1 3 4 14 5 25
1 11 3 21 5 23 6 7 19 83 23 130 1 15 6 27 10 27 5 0 7 8 6 18 -1 9 0 19 1 22
3 8 10 62 12 93 1 15 5 27 8 27 4 0 7 12 7 28 0 15 3 43 7 62 11 70 16 106 18
135 1 17 6 36 11 43 6 8 5 12 -4 12 -9 0 -10 3 -4 8 6 4 12 25 13 47 1 22 4
60 7 85 6 59 16 177 18 215 1 17 5 35 10 42 4 6 3 14 -3 18 -7 4 -7 12 0 26 8
13 7 19 0 19 -6 0 -8 4 -5 10 12 19 13 80 1 80 -7 0 -8 3 0 8 6 4 10 43 10 92
-1 47 2 95 6 106 4 12 4 24 1 27 -8 8 -7 123 1 136 4 6 4 11 -1 11 -4 0 -8 45
-8 101 0 55 -3 103 -7 105 -5 3 -4 13 2 23 5 10 6 21 3 25 -10 9 -10 56 0 56
4 0 5 6 0 12 -4 7 -8 26 -10 43 -6 74 -14 184 -16 222 -1 24 -4 43 -7 43 -3 0
-5 16 -4 35 1 19 -2 35 -7 35 -6 0 -5 9 1 20 6 11 7 20 2 20 -8 0 -9 4 -13 83
-2 26 -6 47 -11 47 -4 0 -5 13 -3 30 2 16 0 32 -4 34 -4 3 -7 15 -6 28 1 13
-3 29 -9 37 -9 12 -8 13 3 6 11 -6 12 -5 5 6 -9 14 -10 20 -19 79 -3 19 -9 52
-14 73 -5 20 -7 37 -4 37 3 0 -1 8 -8 17 -12 15 -12 16 1 8 13 -8 13 -6 2 8
-8 9 -11 21 -7 27 3 5 2 10 -3 10 -5 0 -8 14 -7 30 1 17 -1 30 -4 30 -4 0 -8
10 -9 23 -4 37 -7 51 -15 65 -5 6 -5 17 -2 22 3 6 2 10 -2 10 -5 0 -9 8 -9 18
-1 9 -4 31 -8 47 -4 17 -9 38 -10 47 -1 10 -5 21 -9 24 -4 4 -7 20 -7 35 0 15
-5 31 -11 34 -5 4 -8 12 -6 18 2 7 0 20 -5 30 -10 20 -19 52 -21 82 -1 11 -6
23 -10 26 -4 3 -9 16 -10 27 -1 12 -5 22 -10 22 -4 0 -6 4 -3 8 3 5 -6 42 -21
83 -14 41 -27 81 -28 89 -3 19 -14 50 -26 72 -5 10 -9 26 -9 36 0 10 -5 23
-12 30 -7 7 -8 12 -4 12 5 0 1 11 -8 25 -9 14 -14 25 -11 25 3 0 -1 13 -10 30
-8 16 -15 31 -14 32 5 8 -14 48 -22 48 -6 0 -7 5 -4 10 4 6 1 17 -5 25 -7 8
-10 15 -6 15 4 0 -2 17 -13 39 -11 21 -17 41 -14 45 4 3 1 6 -5 6 -6 0 -9 9
-7 20 2 11 -1 20 -6 20 -5 0 -14 12 -20 28 -6 15 -16 38 -22 52 -6 14 -11 27
-12 30 -7 20 -23 56 -59 130 -22 47 -40 87 -41 90 0 3 -4 11 -8 18 -5 6 -5 12
0 12 4 0 0 5 -10 11 -9 6 -15 14 -12 20 4 5 1 9 -5 9 -6 0 -8 5 -5 10 3 6 1
10 -5 10 -6 0 -8 5 -5 10 3 6 1 10 -5 10 -6 0 -8 5 -5 10 3 6 1 10 -4 10 -6 0
-10 3 -9 8 2 11 -13 45 -30 65 -8 9 -11 17 -6 17 5 0 4 4 -1 8 -6 4 -21 30
-35 57 -14 28 -27 52 -30 55 -3 3 -14 22 -23 42 -10 20 -22 40 -27 43 -6 4 -8
11 -5 16 4 5 1 9 -4 9 -6 0 -11 6 -11 13 0 7 -9 23 -20 35 -12 12 -18 22 -14
22 4 0 0 8 -9 18 -8 9 -17 24 -19 32 -3 14 -7 20 -35 54 -6 7 -9 17 -6 20 4 3
1 6 -5 6 -7 0 -12 6 -12 13 0 7 -9 23 -20 35 -12 12 -18 22 -15 22 4 0 0 7 -7
15 -31 34 -38 45 -31 45 4 0 3 4 -3 8 -6 4 -23 28 -38 55 -15 26 -32 47 -37
47 -5 0 -9 7 -9 15 0 9 -7 18 -15 21 -8 4 -13 9 -10 14 2 4 -5 16 -15 28 -11
12 -20 26 -20 32 0 5 -3 10 -8 10 -4 0 -18 18 -32 40 -14 22 -29 40 -34 40 -5
0 -6 3 -3 7 4 3 -5 16 -18 29 -14 13 -25 27 -25 32 0 4 -13 24 -30 43 -33 39
-30 35 -89 112 -24 31 -47 57 -52 57 -5 0 -9 5 -9 11 0 6 -6 16 -13 23 -7 8
-29 32 -48 56 -18 23 -43 52 -54 64 -106 120 -175 195 -262 285 -57 58 -103
109 -103 113 0 5 -5 8 -11 8 -14 0 -79 67 -71 74 3 3 -1 6 -9 6 -8 0 -21 9
-29 20 -8 11 -21 20 -29 20 -8 0 -12 3 -8 6 5 6 -11 22 -92 90 -18 16 -46 40
-60 54 -15 14 -51 45 -81 70 -30 25 -56 48 -58 53 -2 4 -10 7 -18 7 -8 0 -14
7 -14 15 0 8 -6 15 -13 15 -7 0 -30 16 -50 35 -20 19 -40 35 -43 35 -3 0 -27
18 -53 40 -26 22 -53 40 -60 40 -7 0 -9 5 -6 10 3 6 0 10 -7 10 -7 0 -26 11
-43 25 -16 13 -34 28 -40 33 -5 4 -25 17 -42 27 -18 11 -33 23 -33 27 0 4 -5
8 -10 8 -6 0 -16 5 -23 10 -47 39 -62 50 -78 55 -11 4 -19 11 -19 16 0 6 -4 7
-10 4 -5 -3 -10 -3 -10 2 0 4 -23 22 -50 38 -27 17 -50 33 -50 38 0 4 -5 7
-11 7 -6 0 -42 20 -80 45 -38 25 -73 45 -76 45 -4 0 -14 6 -22 14 -9 8 -38 26
-66 41 -27 14 -64 35 -81 45 -17 10 -62 35 -100 55 -38 20 -75 42 -81 47 -7 6
-13 7 -13 4 0 -4 -13 2 -29 13 -16 12 -36 21 -44 21 -9 0 -17 5 -19 11 -2 5
-10 11 -18 12 -8 2 -22 7 -30 12 -8 5 -17 10 -20 11 -37 11 -50 18 -50 25 0 5
-6 9 -14 9 -8 0 -31 9 -53 20 -37 19 -153 73 -163 75 -7 2 -37 15 -99 42 -29
12 -60 23 -67 23 -8 0 -14 5 -14 11 0 6 -7 9 -15 5 -8 -3 -15 -1 -15 4 0 6 -3
9 -7 8 -5 0 -15 2 -23 5 -39 17 -261 96 -310 111 -30 10 -62 20 -70 23 -16 7
-33 11 -52 16 -7 1 -17 5 -23 9 -5 3 -37 13 -70 22 -33 10 -82 23 -110 31
-142 39 -212 57 -230 59 -12 1 -25 5 -30 8 -6 3 -27 9 -49 12 -21 4 -42 8 -46
11 -5 3 -21 7 -37 9 -15 3 -39 7 -53 10 -79 18 -118 25 -157 30 -18 3 -36 7
-41 10 -5 3 -31 8 -58 10 -27 2 -60 7 -74 10 -14 3 -41 8 -60 11 -19 2 -46 6
-60 9 -14 3 -50 7 -80 10 -30 4 -73 8 -95 11 -133 16 -249 26 -327 29 -21 0
-38 5 -38 9 0 4 -7 4 -17 -1 -9 -5 -28 -6 -43 -2 -24 7 -695 11 -702 5z m1492
-5585 l0 -3120 -1120 0 -1120 0 0 3120 0 3120 1120 0 1120 0 0 -3120z m0
-4745 l0 -865 -1120 0 -1120 0 0 865 0 865 1120 0 1120 0 0 -865z"/>
</g>
</svg>
